<svg width="24" height="24" viewBox="0 0 24 24" fill="none" xmlns="http://www.w3.org/2000/svg">
<path d="M12 2.05469C6.50716 2.05469 2.05447 6.50737 2.05447 12.0002C2.05447 17.493 6.50716 21.9457 12 21.9457C17.4928 21.9457 21.9455 17.493 21.9455 12.0002C21.9455 6.50737 17.4928 2.05469 12 2.05469ZM9.5654 16.1224H7.55144V9.64124H9.5654V16.1224ZM8.54599 8.8456C7.90989 8.8456 7.4986 8.39495 7.4986 7.83758C7.4986 7.26883 7.92232 6.83164 8.57189 6.83164C9.22145 6.83164 9.61927 7.26883 9.63171 7.83758C9.63171 8.39495 9.22145 8.8456 8.54599 8.8456ZM16.9209 16.1224H14.907V12.5306C14.907 11.6946 14.6148 11.1269 13.8865 11.1269C13.3302 11.1269 12.9997 11.5112 12.8536 11.8811C12.7998 12.0126 12.7863 12.1991 12.7863 12.3845V16.1214H10.7713V11.708C10.7713 10.8989 10.7454 10.2224 10.7185 9.64021H12.4682L12.5605 10.5405H12.6009C12.8661 10.1178 13.5156 9.49413 14.6024 9.49413C15.9274 9.49413 16.9209 10.382 16.9209 12.2903V16.1224Z" fill="#1E1E1E"/>
</svg>
